<svg width="394" height="111" viewBox="0 0 394 111" fill="none" xmlns="http://www.w3.org/2000/svg">
<g filter="url(#filter0_d_794_344)">
<path d="M193.922 80.0718C192.17 80.6374 190.35 80.5226 188.584 80.7941C188.216 80.851 187.907 80.705 187.672 80.4131C187.322 79.9795 186.971 79.5481 186.624 79.1124C183.414 75.0836 180.18 71.0731 177.014 67.0089C176.31 66.1053 175.596 65.6449 174.413 65.6932C171.905 65.7951 172.137 65.5 172.133 67.9115C172.126 71.2609 172.138 74.6114 172.125 77.9609C172.123 78.6456 172.244 79.3474 171.947 80.1083C170.333 80.3101 168.694 80.1727 166.924 80.206C166.759 76.7546 166.869 73.4234 166.85 70.0943C166.829 66.6751 166.845 63.2549 166.845 59.8357C166.845 56.4927 166.845 53.1496 166.845 49.8989C167.375 49.5791 167.797 49.6467 168.206 49.6457C171.605 49.6414 175.006 49.6424 178.406 49.6467C180.291 49.6489 182.141 49.9204 183.943 50.4667C185.415 50.9131 186.786 51.5838 187.963 52.5991C190.927 55.1554 190.977 59.5459 188.061 62.1666C186.635 63.4491 184.911 64.1735 183.099 64.7058C180.497 65.4699 180.497 65.4689 182.346 67.4414C185.772 71.0978 189.204 74.7488 192.621 78.4148C193.084 78.9139 193.673 79.327 193.922 80.0718ZM172.13 58.0788C172.133 58.0788 172.135 58.0788 172.138 58.0788C172.138 59.8185 172.125 61.5581 172.144 63.2978C172.152 63.975 172.352 64.1767 173.001 64.1778C174.316 64.1789 175.636 64.2164 176.942 64.1059C178.454 63.9782 179.961 63.7603 181.36 63.0756C182.948 62.2986 184 61.116 184.403 59.357C185.338 55.2853 182.143 51.5538 178.168 51.6064C176.647 51.6268 175.136 51.762 173.627 52.0164C172.279 52.2439 172.106 52.3276 172.125 53.6937C172.146 55.1565 172.13 56.6182 172.13 58.0788Z" fill="white"/>
<path d="M51.7529 80.7319C49.5068 80.7394 47.6556 80.5559 45.8491 79.9892C39.8577 78.1111 36.2277 73.4481 35.7892 67.054C35.6547 65.09 35.8191 63.1454 36.2907 61.2448C37.2574 57.3502 39.4192 54.3098 42.8572 52.2149C45.7563 50.4484 48.9136 49.4804 52.2715 49.211C54.9785 48.9942 57.6771 49.0919 60.2817 49.9998C65.1345 51.6923 68.5298 54.8399 69.6459 60.0031C70.5368 64.1209 70.2434 68.1808 68.2673 72.0036C67.0551 74.3485 65.3319 76.2084 63.0613 77.5531C59.459 79.6887 55.5804 80.792 51.7529 80.7319ZM64.4142 64.6683C64.3705 62.6281 64.0589 60.4356 63.2715 58.315C61.1737 52.6689 56.4201 51.1267 51.7199 51.2608C51.3197 51.2726 50.9164 51.4529 50.5301 51.5957C46.5053 53.0842 43.7097 55.8466 42.3578 59.9344C40.7967 64.6575 41.231 69.2959 43.4195 73.7432C44.8077 76.5636 47.1786 78.1519 50.1876 78.8044C51.3432 79.0555 52.5319 79.0716 53.7131 78.9976C57.2972 78.7722 60.049 77.1206 61.9089 74.033C63.6001 71.2266 64.4196 68.1604 64.4142 64.6683Z" fill="white"/>
<path d="M279.802 80.7297C277.732 80.7458 275.878 80.5602 274.073 80.001C268.081 78.1466 264.433 73.4867 263.982 67.0905C263.839 65.0589 264.025 63.0521 264.528 61.0806C265.525 57.1774 267.747 54.1896 271.19 52.1237C274.038 50.4152 277.136 49.4815 280.422 49.211C283.199 48.9835 285.973 49.078 288.634 50.0428C293.378 51.7642 296.724 54.8797 297.826 59.9634C298.719 64.0834 298.435 68.1401 296.473 71.9671C295.269 74.3152 293.55 76.1783 291.283 77.5305C287.683 79.6791 283.804 80.7802 279.802 80.7297ZM269.694 65.221C269.661 68.2034 270.195 70.9143 271.448 73.4685C272.826 76.2792 275.054 78.0253 278.07 78.7239C278.941 78.9257 279.855 78.989 280.752 79.0126C285.204 79.1264 288.477 77.1946 290.557 73.2216C292.765 69.0061 293.137 64.5738 291.989 60.0149C290.529 54.2089 286.742 51.3156 280.433 51.2329C279.872 51.2254 279.347 51.3413 278.814 51.5399C274.796 53.0338 272.04 55.7822 270.557 59.8249C269.898 61.615 269.623 63.4642 269.694 65.221Z" fill="white"/>
<path d="M362.37 80.0857C360.521 80.6159 358.701 80.5472 356.922 80.7962C356.627 80.837 356.377 80.7157 356.188 80.4925C355.873 80.1211 355.567 79.7423 355.264 79.3624C352.053 75.3347 348.848 71.3027 345.633 67.2782C344.235 65.5278 344.703 65.7414 342.341 65.7199C342.272 65.7189 342.202 65.7189 342.133 65.7199C340.561 65.7425 340.549 65.7425 340.545 67.3394C340.538 70.8981 340.543 74.4568 340.542 78.0155C340.542 78.5038 340.54 78.9921 340.534 79.4804C340.528 79.8668 340.387 80.1748 339.955 80.178C338.569 80.1877 337.183 80.1855 335.797 80.1652C335.493 80.1609 335.302 79.9333 335.273 79.6286C335.24 79.2819 335.237 78.9321 335.237 78.5843C335.235 69.5126 335.235 60.4419 335.237 51.3702C335.237 51.0214 335.24 50.6726 335.264 50.3249C335.29 49.9268 335.515 49.6531 335.911 49.6617C340.76 49.7722 345.623 49.2957 350.457 50.003C351.698 50.1843 352.894 50.5535 354.017 51.1127C354.697 51.4518 355.363 51.836 355.985 52.2738C359.787 54.9525 359.191 60.413 355.93 62.6463C354.596 63.5596 353.164 64.2335 351.623 64.6811C350.958 64.8742 350.278 65.0073 349.605 65.178C349.21 65.2788 349.118 65.6212 349.408 65.9539C349.773 66.3735 350.158 66.7759 350.539 67.1827C354.011 70.8917 357.488 74.5953 360.951 78.3117C361.417 78.8129 361.992 79.2325 362.37 80.0857ZM340.546 58.1614C340.546 59.9043 340.545 61.6471 340.548 63.39C340.549 63.8772 340.76 64.1756 341.282 64.181C343.432 64.2067 345.583 64.2443 347.701 63.7849C348.652 63.5789 349.567 63.2602 350.406 62.7482C351.863 61.8596 352.709 60.5493 352.95 58.8719C353.47 55.2144 350.794 51.7973 346.923 51.616C345.05 51.528 343.187 51.777 341.347 52.1515C340.692 52.2846 340.558 52.4252 340.55 53.1421C340.533 54.8141 340.545 56.4883 340.546 58.1614Z" fill="white"/>
<path d="M109.36 80.0763C108.66 80.3199 107.985 80.1793 107.41 80.1665C106.914 79.7704 107.056 79.3218 107.055 78.9312C107.045 69.7189 107.047 60.5076 107.049 51.2953C107.049 50.9476 107.061 50.5977 107.088 50.2511C107.111 49.9431 107.285 49.7016 107.594 49.6941C108.632 49.6662 109.672 49.649 110.709 49.6866C110.949 49.6952 111.221 49.8948 111.408 50.0783C111.853 50.5162 112.259 50.9948 112.677 51.4617C118.16 57.5757 123.644 63.6907 129.129 69.8037C129.501 70.2179 129.895 70.6096 130.267 71.0239C130.383 71.1537 130.473 71.1559 130.635 71.1033C130.791 71.0528 130.877 71.0024 130.882 70.8243C130.902 70.1986 130.948 69.5729 130.949 68.9472C130.954 63.2947 130.951 57.6422 130.953 51.9897C130.953 51.4316 130.96 50.8735 130.972 50.3155C130.981 49.9173 131.161 49.6673 131.587 49.6555C131.725 49.6523 131.864 49.649 132.003 49.6469C133.328 49.6265 133.409 49.6802 133.411 51.0399C133.42 60.5312 133.416 70.0215 133.415 79.5129C133.415 79.7221 133.421 79.9325 133.403 80.1407C133.365 80.5517 132.831 80.8189 132.46 80.6322C131.879 80.3392 131.54 79.793 131.125 79.3347C125.512 73.1488 119.909 66.9554 114.303 60.7641C113.229 59.5772 112.156 58.3891 111.077 57.2054C110.797 56.8974 110.493 56.6098 110.213 56.3007C110.1 56.1751 110.003 56.1666 109.842 56.2052C109.684 56.2427 109.596 56.2921 109.591 56.4724C109.57 57.0981 109.525 57.7227 109.525 58.3484C109.52 64.9077 109.527 71.4682 109.514 78.0276C109.512 78.708 109.668 79.4141 109.36 80.0763Z" fill="white"/>
<path d="M100.137 49.7884C100.426 50.237 100.314 50.736 100.315 51.2104C100.323 57.0711 100.323 62.9318 100.314 68.7915C100.312 70.1866 100.258 71.5764 99.9131 72.9447C99.148 75.9829 97.3843 78.1583 94.5161 79.415C93.4939 79.8636 92.429 80.1673 91.3331 80.353C88.1587 80.8907 84.9822 80.9583 81.8334 80.2049C77.146 79.0834 74.4293 75.9336 73.9684 71.1332C73.882 70.2317 73.8318 69.3227 73.8297 68.418C73.8169 62.7665 73.8222 57.1162 73.8243 51.4647C73.8243 51.0472 73.8339 50.6276 73.8713 50.2123C73.898 49.9118 74.0772 49.6778 74.3909 49.6746C75.8453 49.6639 77.3007 49.6671 78.7551 49.6864C79.057 49.6907 79.2715 49.8989 79.2907 50.2123C79.3249 50.7682 79.3355 51.3263 79.3366 51.8832C79.3409 57.8137 79.3398 63.7442 79.343 69.6736C79.3441 71.0709 79.4102 72.4478 79.8786 73.799C80.4847 75.5483 81.5443 76.849 83.2483 77.552C86.6841 78.9686 90.169 78.9686 93.5707 77.5359C96.1785 76.4369 97.3778 74.1875 97.7225 71.4594C97.8441 70.4946 97.8345 69.5105 97.8356 68.5339C97.8452 63.0219 97.8399 57.5111 97.842 51.9992C97.842 51.4411 97.8473 50.883 97.8644 50.326C97.8772 49.9215 98.096 49.665 98.5004 49.6617C99.0499 49.6564 99.6111 49.5394 100.137 49.7884Z" fill="white"/>
<path d="M302.401 49.6522C303.846 49.6522 305.365 49.6479 306.886 49.6543C307.411 49.6564 307.601 49.9859 307.605 50.4646C307.61 51.0226 307.61 51.5807 307.612 52.1387C307.614 58.1379 307.63 64.136 307.607 70.1352C307.602 71.6269 307.879 73.036 308.428 74.4119C308.941 75.6986 309.781 76.6806 311.027 77.2719C311.712 77.5971 312.415 77.9148 313.144 78.1101C315.681 78.7926 318.239 78.7283 320.741 77.9845C323.678 77.1131 325.402 75.0579 325.912 72.0401C326.108 70.8778 326.158 69.6801 326.163 68.4985C326.187 62.9877 326.174 57.4779 326.176 51.967C326.176 51.409 326.181 50.8509 326.203 50.2939C326.219 49.8904 326.44 49.664 326.851 49.6532C327.128 49.6457 327.406 49.6393 327.683 49.6457C328.435 49.664 328.558 49.7745 328.606 50.4452C328.612 50.515 328.613 50.5848 328.613 50.6545C328.598 57.0712 328.587 63.4889 328.563 69.9055C328.56 70.5323 328.519 71.1633 328.429 71.7825C327.868 75.6321 325.822 78.3194 322.168 79.6748C320.736 80.206 319.244 80.5387 317.71 80.6299C315.143 80.7834 312.585 80.8424 310.059 80.2017C306.237 79.2337 302.89 76.8706 302.227 71.071C302.148 70.3799 302.142 69.678 302.142 68.9815C302.135 63.0521 302.135 57.1237 302.14 51.1943C302.139 50.7157 302.049 50.2177 302.401 49.6522Z" fill="white"/>
<path d="M34.0863 76.6999C34.5461 77.3041 34.3199 77.874 34.3648 78.4041C34.4128 78.9761 34.1108 79.252 33.5666 79.4333C32.0461 79.9431 30.4797 80.2651 28.9027 80.4378C25.103 80.8532 21.2948 80.9627 17.5207 80.1642C14.9214 79.6147 12.4875 78.6403 10.266 77.1603C6.53569 74.6748 4.57343 71.1923 4.38457 66.6827C4.24692 63.3987 4.82525 60.3047 6.58157 57.4865C7.74143 55.6266 9.22139 54.0909 11.0759 52.92C14.7955 50.5708 18.847 49.3173 23.2357 49.1488C26.4474 49.0254 29.5973 49.401 32.6821 50.3036C33.4279 50.5214 33.4802 50.5944 33.3703 51.3135C32.9157 54.2937 33.3543 53.9449 30.5779 52.949C28.2838 52.1269 25.9406 51.5925 23.5227 51.2759C19.0775 50.6942 13.45 53.799 11.3842 58.4427C10.2553 60.9819 9.86587 63.6445 10.075 66.3972C10.1486 67.3663 10.2895 68.3419 10.521 69.2841C11.7225 74.1564 14.9321 77.0991 19.6259 78.3558C23.3733 79.3593 27.1719 79.1822 30.9225 78.1294C32.0546 77.8128 33.0576 77.1989 34.0863 76.6999Z" fill="white"/>
<path d="M261.088 53.7398C260.097 53.3867 259.129 53.0358 258.157 52.6988C256.054 51.968 253.904 51.4367 251.679 51.2929C247.061 50.9935 243.512 52.9779 240.769 56.5816C239.657 58.0423 238.997 59.7433 238.661 61.5355C238.209 63.9524 238.187 66.4014 238.7 68.8107C239.799 73.9717 243.089 77.084 248.05 78.3922C251.596 79.328 255.192 79.1392 258.751 78.2742C260.033 77.9629 261.175 77.3051 262.459 76.6815C262.757 77.5186 262.615 78.2516 262.603 79.0093C262.42 79.1317 262.272 79.2894 262.093 79.342C256.182 81.0752 250.227 81.2877 244.245 79.7584C242.151 79.2229 240.215 78.2838 238.42 77.069C234.697 74.5502 232.826 71.0075 232.648 66.5205C232.52 63.3063 233.157 60.2874 234.849 57.5293C235.995 55.6619 237.475 54.1219 239.327 52.9478C243.043 50.5921 247.092 49.3268 251.482 49.153C254.694 49.0263 257.844 49.3869 260.931 50.2906C261.764 50.5342 261.876 50.6544 261.665 51.4518C261.473 52.1773 261.572 52.9832 261.088 53.7398Z" fill="white"/>
<path d="M389.187 53.1077C387.014 52.6774 385.047 52.3179 383.095 51.8907C381.844 51.6171 380.617 51.6836 379.384 51.9251C378.941 52.012 378.634 52.2417 378.647 52.7654C378.66 53.3224 378.642 53.8804 378.642 54.4385C378.641 62.2471 378.642 70.0556 378.641 77.8642C378.641 78.4223 378.636 78.9793 378.624 79.5373C378.616 79.9398 378.429 80.1844 378.004 80.1973C377.935 80.1995 377.865 80.2102 377.797 80.207C376.415 80.1523 375.028 80.3401 373.652 80.0997C373.109 78.7646 373.433 77.3705 373.426 76.0097C373.385 68.6894 373.406 61.3681 373.406 54.0478C373.406 53.6293 373.389 53.2108 373.404 52.7933C373.421 52.291 373.178 52.027 372.706 51.9326C371.473 51.6857 370.243 51.6063 368.996 51.8811C367.306 52.2535 365.61 52.5979 363.91 52.9296C363.053 53.097 362.864 52.98 362.777 52.1901C362.457 49.2968 362.259 49.652 364.888 49.6477C372.305 49.6359 379.722 49.6434 387.14 49.6445C387.695 49.6445 388.249 49.6434 388.804 49.6574C389.227 49.6681 389.433 49.9407 389.413 50.3292C389.369 51.1599 389.281 51.9894 389.187 53.1077Z" fill="white"/>
<path d="M163.421 49.6434C163.626 50.7188 163.476 51.5473 163.398 52.3737C163.349 52.8952 163.098 53.0712 162.526 52.9639C160.824 52.6452 159.119 52.3372 157.432 51.9476C156.538 51.7405 155.653 51.6632 154.752 51.7458C152.287 51.9734 152.748 52.0495 152.744 53.9631C152.727 61.983 152.739 70.003 152.73 78.022C152.729 78.7067 152.861 79.4107 152.555 80.1319C150.921 80.2306 149.279 80.2993 147.5 80.0782C147.5 79.2443 147.5 78.4877 147.5 77.7301C147.5 70.0588 147.5 62.3876 147.5 54.7164C147.5 54.1584 147.509 53.6003 147.494 53.0433C147.471 52.2019 147.35 52.0238 146.621 51.8929C145.455 51.6836 144.288 51.6106 143.112 51.8757C141.558 52.2256 139.997 52.5454 138.435 52.8566C137.97 52.9489 137.489 53.1249 136.952 52.8104C136.978 51.8328 136.491 50.8315 136.928 49.8012C137.869 49.4803 138.84 49.6553 139.794 49.6531C146.936 49.6349 154.077 49.6434 161.219 49.6434C161.906 49.6434 162.592 49.6434 163.421 49.6434Z" fill="white"/>
<path d="M194.11 49.6456C195.641 49.6456 197.221 49.651 198.801 49.6424C199.263 49.6392 199.591 49.8162 199.81 50.2294C200.071 50.7209 200.354 51.1996 200.623 51.6868C203.111 56.1964 205.592 60.7103 208.093 65.2134C208.353 65.6792 208.465 66.2844 209.116 66.5291C209.668 66.0998 209.855 65.4141 210.161 64.826C212.44 60.442 214.695 56.044 216.957 51.6514C217.212 51.1567 217.461 50.6576 217.731 50.1704C217.909 49.8484 218.186 49.652 218.569 49.651C219.188 49.6488 219.807 49.6499 220.378 49.6499C220.695 50.3067 220.257 50.6791 220.049 51.0719C217.209 56.4196 214.36 61.7631 211.475 67.0861C210.895 68.1561 210.592 69.2164 210.622 70.4538C210.693 73.3826 210.635 76.3145 210.648 79.2454C210.651 80.0332 210.429 80.2671 209.677 80.2027C208.32 80.0868 206.932 80.5 205.6 79.972C205.312 78.7335 205.487 77.4757 205.466 76.2287C205.435 74.2754 205.417 72.3201 205.475 70.368C205.505 69.3398 205.217 68.4813 204.683 67.6227C201.306 62.1827 197.953 56.7266 194.613 51.2629C194.343 50.8186 193.808 50.4355 194.11 49.6456Z" fill="white"/>
<path d="M183.954 98.7594C184.763 99.7854 185.545 100.749 186.294 101.74C186.668 102.233 187.162 102.389 187.734 102.445C188.081 102.479 188.159 102.775 188.158 103.054C188.156 103.374 187.932 103.568 187.629 103.572C186.382 103.587 185.133 103.593 183.886 103.569C183.433 103.561 183.223 103.208 183.395 102.69C183.506 102.357 183.715 102.061 183.416 101.748C183.135 101.455 182.978 101.015 182.527 100.919C182.418 100.895 182.245 100.935 182.17 101.012C181.701 101.504 181.117 101.936 181.548 102.791C181.708 103.11 181.523 103.539 181.097 103.55C179.852 103.581 178.607 103.562 177.363 103.522C177.219 103.518 176.999 103.274 176.968 103.112C176.936 102.948 177.076 102.595 177.172 102.583C178.749 102.393 179.387 101.056 180.291 100.047C180.477 99.8401 180.64 99.6147 180.818 99.4012C181.084 99.0803 181.037 98.7755 180.791 98.4675C180.314 97.8686 179.827 97.2784 179.372 96.6624C178.943 96.0796 178.464 95.6224 177.685 95.5977C177.333 95.587 177.254 95.279 177.251 94.9989C177.248 94.6791 177.468 94.4784 177.769 94.4709C178.877 94.444 179.988 94.4258 181.097 94.443C181.945 94.4558 181.965 94.5106 181.897 95.5902C181.893 95.6557 181.837 95.7201 181.84 95.7834C181.858 96.2245 182.338 96.8319 182.663 96.8373C183.02 96.8426 183.495 96.2899 183.493 95.8124C183.492 95.6181 183.367 95.426 183.321 95.2286C183.224 94.8079 183.45 94.502 183.821 94.4924C185.062 94.4602 186.306 94.4848 187.547 94.5299C187.675 94.5342 187.876 94.8164 187.891 94.9839C187.907 95.1524 187.755 95.4797 187.64 95.4969C185.729 95.7909 185.152 97.5424 183.954 98.7594Z" fill="white"/>
<path d="M224.989 99.6351C225.103 99.8573 225.125 99.9281 225.168 99.9796C226.106 101.089 226.96 102.306 228.568 102.526C228.687 102.542 228.824 102.843 228.848 103.025C228.875 103.222 228.766 103.451 228.532 103.494C226.953 103.782 225.495 103.552 224.295 102.389C223.847 101.954 223.46 101.458 223.031 101.002C222.842 100.802 222.618 100.635 222.311 100.777C221.933 100.952 221.924 101.293 221.902 101.644C221.868 102.187 222.28 102.307 222.637 102.508C222.884 102.646 223.094 102.87 222.905 103.177C222.808 103.335 222.614 103.537 222.458 103.542C221.282 103.577 220.106 103.571 218.929 103.571C218.691 103.571 218.572 103.397 218.481 103.205C218.333 102.892 218.496 102.548 218.71 102.492C219.311 102.336 219.435 101.969 219.429 101.425C219.411 100.031 219.415 98.637 219.427 97.2429C219.434 96.4863 219.513 95.7287 218.581 95.3917C218.431 95.337 218.343 95.0311 218.49 94.8379C218.604 94.6877 218.782 94.4838 218.933 94.4816C220.525 94.4644 222.119 94.4612 223.711 94.5074C224.113 94.5192 224.526 94.6791 224.908 94.8347C226.612 95.5312 227.085 97.3299 225.935 98.7572C225.679 99.0792 225.329 99.325 224.989 99.6351ZM221.892 97.0487C221.9 97.0487 221.906 97.0487 221.914 97.0487C221.914 97.3267 221.898 97.6057 221.917 97.8826C221.946 98.2915 222.223 98.4857 222.626 98.402C223.707 98.1788 224.129 97.5864 223.867 96.6559C223.699 96.0549 223.107 95.7147 222.384 95.8478C221.815 95.953 221.922 96.4413 221.893 96.8394C221.888 96.9092 221.892 96.9789 221.892 97.0487Z" fill="white"/>
<path d="M44.9741 11.8156C45.2804 11.4625 45.5013 11 46.1073 11.0859C46.4477 11.1342 46.8009 11.0794 47.1466 11.0998C48.0002 11.1503 48.3918 11.5023 48.4943 12.3748C48.5508 12.8577 48.5113 13.3503 48.5348 13.8375C48.5604 14.3859 48.426 14.9569 48.8165 15.6019C49.6915 15.6019 50.6464 15.6115 51.6014 15.5976C52.1168 15.5901 52.311 15.2563 52.3153 14.7819C52.3249 13.8053 52.3131 12.8277 52.343 11.8521C52.3612 11.2597 52.6055 11.0966 53.3311 11.0966C54.0065 11.0966 54.2786 11.2908 54.2999 11.894C54.3309 12.7997 54.3127 13.7077 54.3085 14.6145C54.3021 16.1492 54.2989 17.6849 54.2754 19.2196C54.2637 19.9934 54.4216 20.5997 55.336 20.7189C55.5035 20.7403 55.6668 20.9786 55.5302 21.2072C55.4662 21.3134 55.3392 21.4443 55.2325 21.454C52.7933 21.6536 52.2288 21.615 52.3185 19.0994C52.343 18.4093 52.4273 17.7043 52.2 17.0292C51.8255 16.7706 51.4019 16.8189 50.9943 16.8242C48.1389 16.8629 48.5764 16.4239 48.5337 19.2035C48.5273 19.6221 48.5455 20.0417 48.5273 20.4592C48.4879 21.3402 48.2392 21.5613 47.3792 21.5141C46.6963 21.4765 46.5331 21.337 46.5256 20.6148C46.5064 18.9406 46.5181 17.2653 46.5171 15.5911C46.5171 15.0331 46.5139 14.475 46.5171 13.917C46.5288 11.9906 46.4744 12.2707 44.9464 11.7351C44.9432 11.7351 44.9741 11.8156 44.9741 11.8156Z" fill="white"/>
<path d="M71.6391 16.7532C72.1428 17.4669 72.6005 18.0754 73.0156 18.7118C73.596 19.6015 74.2288 20.4096 75.3364 20.6564C75.5882 20.7122 75.6245 20.9247 75.6052 21.1319C75.5818 21.3819 75.3673 21.442 75.1667 21.4849C75.0323 21.5139 74.8903 21.5021 74.7538 21.5193C73.404 21.6889 72.3551 21.3433 71.6263 20.0479C71.0512 19.0284 70.2648 18.128 69.5574 17.1868C69.4976 17.1074 69.3066 17.0709 69.201 17.1009C69.1071 17.1288 68.9854 17.2748 68.9822 17.3725C68.9513 18.3448 68.9523 19.3182 68.9246 20.2905C68.8958 21.3068 68.7261 21.5075 67.9472 21.515C67.0925 21.5236 66.925 21.3647 66.9186 20.3742C66.9037 18.2171 66.8877 16.0599 66.925 13.9039C66.941 12.9509 66.9399 12.0838 65.7683 11.8208C65.7171 11.809 65.6691 11.575 65.6969 11.4645C65.7267 11.3486 65.8452 11.1705 65.9316 11.1662C67.7231 11.0835 69.5189 10.9386 71.2987 11.2896C72.4842 11.5235 73.3271 12.2018 73.5822 13.422C73.8372 14.6422 73.3741 15.5985 72.3209 16.2628C72.1449 16.3755 71.9827 16.5064 71.6391 16.7532ZM68.9555 13.9286C68.9577 13.9286 68.9587 13.9286 68.9609 13.9286C68.9609 14.4115 68.9374 14.8966 68.9726 15.3774C68.9865 15.5738 69.1476 15.7423 69.3834 15.7584C70.3875 15.826 71.3489 15.0694 71.4428 14.1389C71.5431 13.1494 70.7652 12.3617 69.6523 12.3295C69.2661 12.3188 68.9854 12.468 68.9598 12.8929C68.9395 13.2374 68.9555 13.5841 68.9555 13.9286Z" fill="white"/>
<path d="M205.587 98.21C205.587 97.7217 205.546 97.2292 205.598 96.7462C205.665 96.1173 205.463 95.7063 204.881 95.4401C204.766 95.3875 204.692 95.0613 204.734 94.8981C204.777 94.7361 204.989 94.5064 205.132 94.5021C206.17 94.4732 207.21 94.4785 208.247 94.5075C208.568 94.5161 208.803 95.1761 208.534 95.3189C207.61 95.8115 207.71 96.6249 207.727 97.4491C207.746 98.3549 207.73 99.2628 207.727 100.169C207.725 101.668 206.979 102.687 205.645 103.245C203.901 103.974 202.124 103.953 200.39 103.207C199.139 102.669 198.406 101.711 198.379 100.298C198.358 99.1834 198.358 98.0673 198.362 96.9512C198.364 96.3062 198.378 95.6837 197.605 95.409C197.458 95.3575 197.293 95.0988 197.458 94.8853C197.577 94.7318 197.751 94.5183 197.905 94.514C199.012 94.4818 200.121 94.4818 201.227 94.5129C201.38 94.5172 201.553 94.735 201.669 94.8896C201.83 95.1042 201.668 95.3371 201.516 95.4144C200.95 95.702 200.737 96.113 200.768 96.758C200.825 97.9407 200.712 99.1373 200.834 100.311C201.031 102.195 202.993 103.06 204.586 102.032C205.208 101.63 205.57 101.062 205.577 100.301C205.584 99.603 205.578 98.9055 205.578 98.209C205.582 98.21 205.585 98.21 205.587 98.21Z" fill="white"/>
<path d="M84.9726 16.5162C84.9726 18.0487 84.9822 19.5802 84.9587 21.1127C84.9566 21.278 84.788 21.5334 84.644 21.5796C84.4882 21.6289 84.2022 21.5388 84.0913 21.4089C83.2366 20.4033 82.4107 19.3731 81.5773 18.3503C80.744 17.3276 79.9096 16.3059 79.0805 15.2799C78.9674 15.1404 78.8778 15.1339 78.7262 15.1973C78.5779 15.2595 78.5032 15.326 78.5011 15.4999C78.4883 16.8918 78.4776 18.2838 78.4488 19.6746C78.4392 20.1576 78.4125 20.6448 78.3314 21.1192C78.277 21.4358 77.9815 21.5398 77.6902 21.4873C77.4949 21.4518 77.2922 21.3445 77.273 21.0934C77.242 20.6792 77.2047 20.2638 77.2025 19.8485C77.1951 18.038 77.1705 16.2265 77.2089 14.416C77.2346 13.1936 77.0275 12.1869 75.6201 11.8993C75.5273 11.88 75.4089 11.6965 75.4046 11.5849C75.395 11.3638 75.5487 11.1846 75.761 11.1502C77.305 10.9056 78.6046 11.2189 79.5895 12.5991C80.5562 13.9545 81.652 15.2187 82.6945 16.5194C82.8236 16.6815 82.9794 16.821 83.1107 16.982C83.2248 17.1226 83.3177 17.1172 83.4628 17.0517C83.6154 16.9831 83.6847 16.9133 83.6858 16.7416C83.6964 15.3497 83.7082 13.9577 83.7306 12.5658C83.7477 11.5033 84.0112 10.9946 84.4679 11.1395C85.2063 11.3745 84.9694 12.0346 84.9811 12.5454C85.01 13.8676 84.9908 15.1919 84.9908 16.5151C84.9844 16.5162 84.9779 16.5162 84.9726 16.5162Z" fill="white"/>
<path d="M164.528 98.1778C164.528 97.7603 164.52 97.3428 164.53 96.9264C164.544 96.2793 164.528 95.6708 163.768 95.3918C163.634 95.3424 163.502 95.0473 163.671 94.8487C163.796 94.7028 163.973 94.5042 164.131 94.4999C165.165 94.472 166.2 94.4645 167.234 94.5042C167.678 94.5214 167.864 95.1846 167.456 95.4261C166.875 95.7695 166.762 96.2031 166.778 96.7987C166.804 97.771 166.809 98.7455 166.779 99.7189C166.708 102.046 165.593 103.331 163.321 103.66C162.082 103.839 160.844 103.838 159.647 103.346C158.157 102.734 157.297 101.694 157.303 100.019C157.307 98.8378 157.287 97.6551 157.305 96.4735C157.313 95.9981 157.175 95.7148 156.688 95.5506C156.459 95.4733 156.336 95.1363 156.461 94.8337C156.543 94.6352 156.677 94.4699 156.907 94.4699C158.012 94.4667 159.117 94.4538 160.221 94.4881C160.659 94.5021 160.878 95.1803 160.486 95.4121C159.912 95.7523 159.783 96.1666 159.802 96.7687C159.836 97.8805 159.77 98.9955 159.827 100.105C159.93 102.113 161.872 103.083 163.577 102.013C164.147 101.656 164.467 101.142 164.487 100.47C164.51 99.7071 164.493 98.9419 164.493 98.1778C164.503 98.1778 164.516 98.1778 164.528 98.1778Z" fill="white"/>
<path d="M24.0786 16.2962C24.0594 17.848 23.5707 19.1842 22.4898 20.2863C20.1103 22.7139 16.1197 22.1515 14.5629 19.1176C13.7285 17.4917 13.7071 15.7628 14.3313 14.0457C15.0441 12.085 17.2006 10.5256 19.6312 10.8497C21.9627 11.1609 23.75 13.0659 24.0349 15.4827C24.0669 15.7585 24.0647 16.0386 24.0786 16.2962ZM21.8154 16.3359C21.7386 15.4709 21.6874 14.5597 21.3353 13.7173C20.9031 12.6827 20.1765 11.9819 18.9878 11.9766C17.7992 11.9701 17.0426 12.6473 16.6361 13.699C15.9553 15.4591 15.9948 17.247 16.6895 18.991C17.1291 20.0953 18.083 20.7017 19.0999 20.6383C20.2725 20.5654 21.0109 19.8828 21.4089 18.8321C21.7066 18.0487 21.7941 17.2116 21.8154 16.3359Z" fill="white"/>
<path d="M59.5977 12.5205C59.571 12.7319 59.5379 12.8693 59.5379 13.0077C59.5497 15.6843 59.1869 15.5394 61.9035 15.5437C62.3111 15.5448 62.722 15.6081 63.1232 15.6854C63.2085 15.7015 63.2875 15.8925 63.3205 16.017C63.3803 16.2413 63.2715 16.4581 63.0815 16.5278C62.8308 16.6201 62.547 16.6427 62.2749 16.6523C61.5845 16.6781 60.8931 16.6631 60.2038 16.7006C59.8239 16.721 59.5636 16.9442 59.5582 17.3563C59.5475 18.2578 59.555 19.1593 59.555 20.0114C59.9658 20.3506 60.3926 20.2701 60.8002 20.3098C62.2002 20.4471 63.4283 20.2475 64.0739 18.7633C64.1176 18.6635 64.2958 18.6216 64.4121 18.554C64.5466 18.4757 64.9243 18.6592 64.9125 18.803C64.8955 19.0101 64.8997 19.2291 64.8304 19.419C63.933 21.868 64.4164 21.4957 62.0081 21.5203C60.764 21.5332 59.5187 21.5236 58.2735 21.5064C57.8851 21.501 57.6184 21.2778 57.5832 20.8796C57.5394 20.3967 57.5277 19.9095 57.5266 19.4244C57.5202 17.4068 57.5127 15.3902 57.5266 13.3726C57.5319 12.6064 57.3975 11.9882 56.4831 11.8788C56.4052 11.8691 56.2686 11.6276 56.2995 11.5675C56.387 11.4012 56.5407 11.1576 56.6805 11.15C57.5768 11.0996 58.4763 11.0975 59.3747 11.0942C60.6882 11.0889 62.0028 11.0846 63.3163 11.1028C63.9586 11.1114 64.1368 11.3099 64.1678 11.9893C64.187 12.4057 64.1955 12.8264 64.1518 13.2396C64.1326 13.422 64.0152 13.6602 63.869 13.7483C63.6705 13.8674 63.4614 13.6549 63.4283 13.4853C63.2192 12.4175 62.4797 12.2415 61.5717 12.3091C60.9582 12.3552 60.3275 12.1953 59.5977 12.5205Z" fill="white"/>
<path d="M12.1803 13.917C12.1664 14.006 12.144 14.2861 12.0672 14.5491C12.0352 14.6607 11.8975 14.7927 11.7876 14.8141C11.6777 14.8356 11.475 14.7658 11.4312 14.6768C11.2221 14.2453 11.0684 13.7882 10.8678 13.3525C10.5541 12.672 9.99822 12.2964 9.28118 12.1301C8.8469 12.0292 8.45744 12.1344 8.09145 12.3522C7.48965 12.7096 7.36694 13.4523 7.84817 13.9502C8.08611 14.1971 8.36781 14.4095 8.65697 14.5941C9.12326 14.8936 9.61409 15.1543 10.0911 15.4366C10.5093 15.6834 10.9436 15.9088 11.3341 16.1932C12.6178 17.128 13.0873 18.3707 12.6636 19.6264C12.1974 21.0086 10.7622 21.9552 9.22676 21.7867C8.54814 21.7126 7.88658 21.4604 7.22609 21.2565C6.15053 20.9249 5.67144 20.2016 5.75893 19.049C5.81869 18.2688 5.95847 17.759 6.24336 17.8277C6.73846 17.9468 6.79608 18.4072 6.92306 18.785C7.23996 19.7294 7.86097 20.3143 8.83623 20.4892C9.10299 20.5375 9.40069 20.56 9.65571 20.4903C10.122 20.3636 10.5872 20.1866 10.7707 19.6553C10.9425 19.1584 10.7579 18.5854 10.2415 18.1947C9.85631 17.9017 9.43056 17.6624 9.02296 17.3995C8.38168 16.9863 7.71586 16.6053 7.10338 16.1524C5.81549 15.1983 5.41748 13.9609 5.93819 12.7021C6.50478 11.3338 7.98368 10.5879 9.5298 10.897C9.80082 10.9517 10.075 11.0118 10.3354 11.1041C11.8271 11.6343 12.1814 12.1451 12.1803 13.917Z" fill="white"/>
<path d="M242.386 97.5541C242.919 97.2311 243.146 96.7074 243.498 96.2942C243.802 95.9379 243.56 95.6922 243.437 95.3777C243.241 94.8787 243.434 94.4848 243.865 94.4751C245.038 94.4505 246.213 94.4462 247.385 94.4816C247.65 94.4902 247.89 94.7445 247.838 95.0579C247.809 95.235 247.637 95.529 247.526 95.5301C246.365 95.544 245.905 96.4659 245.305 97.2064C245.043 97.5294 244.833 97.9062 244.532 98.183C243.505 99.1264 243.387 100.323 243.465 101.612C243.495 102.109 243.691 102.335 244.148 102.487C244.389 102.566 244.535 102.862 244.43 103.173C244.327 103.475 244.094 103.596 243.797 103.595C242.692 103.593 241.587 103.594 240.483 103.569C240.183 103.563 239.961 103.329 239.934 103.051C239.918 102.884 240.077 102.566 240.202 102.54C240.917 102.394 240.954 101.919 240.999 101.308C241.086 100.133 240.821 99.1285 240.011 98.2571C239.637 97.8536 239.326 97.3856 239.002 96.937C238.511 96.2577 238.039 95.5848 237.064 95.5666C236.739 95.5602 236.644 95.1888 236.695 94.9269C236.746 94.6608 236.956 94.4483 237.286 94.4505C238.529 94.4569 239.772 94.4429 241.015 94.4708C241.411 94.4794 241.746 94.8615 241.551 95.1416C241.023 95.8982 241.43 96.4133 241.835 96.9618C241.995 97.1785 242.204 97.3599 242.386 97.5541Z" fill="white"/>
<path d="M34.0585 15.0899C34.0585 15.9946 34.0937 16.9003 34.0521 17.8018C33.9273 20.4848 32.649 21.6814 29.958 21.6696C29.6816 21.6686 29.4042 21.6535 29.1299 21.6246C27.2776 21.426 26.25 20.4451 26.0174 18.5939C25.9225 17.8372 25.9107 17.0688 25.8947 16.3047C25.8734 15.3313 25.8819 14.3569 25.8862 13.3835C25.8894 12.6215 25.7315 11.9948 24.8138 11.8982C24.7285 11.8896 24.6079 11.7039 24.5983 11.5912C24.5791 11.3627 24.7487 11.2199 24.9493 11.1512C25.0774 11.1072 25.2214 11.0976 25.3591 11.0976C27.968 11.0836 27.9349 10.8872 27.9093 13.5101C27.8986 14.623 27.9018 15.7359 27.9103 16.8488C27.9146 17.335 27.9071 17.8265 27.9765 18.3052C28.2006 19.8548 28.86 20.4312 30.2866 20.3807C31.79 20.3271 32.601 19.5887 32.7461 18.1163C32.7866 17.702 32.7802 17.2824 32.7813 16.8649C32.7866 15.6125 32.7322 14.3579 32.8058 13.1098C32.8464 12.4305 32.3844 11.5483 33.3756 11.1287C34.639 11.4743 33.9027 12.5056 34.0447 13.215C34.1652 13.8171 34.0692 14.462 34.0692 15.0877C34.066 15.0899 34.0617 15.0899 34.0585 15.0899Z" fill="white"/>
<path d="M36.5895 30.0588C36.6952 30.2766 36.7176 30.3443 36.756 30.4022C37.489 31.4818 38.078 32.701 39.4321 33.1829C39.495 33.2054 39.5068 33.4147 39.5121 33.5381C39.5142 33.5885 39.4417 33.6712 39.3873 33.6883C38.1495 34.0822 37.2329 33.8085 36.4903 32.8105C36.0752 32.2524 35.6836 31.6761 35.2707 31.1159C35.116 30.9066 35.005 30.5814 34.6764 30.634C34.1738 30.7156 34.3509 31.1631 34.3274 31.4636C34.2848 32.0184 34.3221 32.5797 34.2901 33.1367C34.2623 33.6197 33.9924 33.8096 33.4279 33.7999C32.8987 33.7903 32.6768 33.5993 32.6725 33.0412C32.6565 31.2973 32.6447 29.5522 32.6714 27.8083C32.6821 27.0581 32.5711 26.4282 31.7858 26.1223C31.6097 26.0536 31.5788 25.9248 31.7015 25.7928C31.7901 25.6984 31.8914 25.56 31.9992 25.5471C33.4514 25.3829 34.9122 25.3356 36.3388 25.6844C37.934 26.0751 38.5251 27.8158 37.5413 29.1401C37.298 29.4685 36.9512 29.7164 36.5895 30.0588ZM34.3189 28.0508C34.3232 28.1109 34.3136 28.4597 34.3819 28.7924C34.4224 28.992 34.623 29.1112 34.8492 29.0994C35.467 29.0672 35.9194 28.7355 36.0923 28.1968C36.2662 27.6559 36.0763 27.0367 35.6036 26.7362C35.3038 26.5462 34.9367 26.4861 34.6166 26.6353C34.353 26.7587 34.3178 27.0689 34.3178 27.3522C34.3189 27.4906 34.3189 27.6291 34.3189 28.0508Z" fill="white"/>
<path d="M46.1831 25.6706C46.8756 25.6706 47.5713 25.633 48.2617 25.677C50.91 25.8477 51.8245 27.9147 51.8223 29.7713C51.8202 31.9316 50.4181 33.4459 48.2819 33.7378C48.1443 33.7571 48.0056 33.7743 47.8679 33.7754C44.0693 33.7872 44.7768 34.371 44.7021 30.8574C44.6818 29.8808 44.6711 28.9031 44.7063 27.9275C44.7341 27.1806 44.6178 26.5539 43.857 26.2136C43.7012 26.1439 43.682 25.9808 43.7887 25.8745C43.8783 25.7854 43.9968 25.6674 44.1056 25.6642C44.797 25.6449 45.4895 25.6545 46.182 25.6545C46.182 25.661 46.182 25.6652 46.1831 25.6706ZM49.9081 29.6146C49.8761 27.7869 48.8315 26.6537 47.1488 26.6247C46.7625 26.6182 46.4381 26.7674 46.4317 27.1903C46.4093 28.8623 46.4093 30.5343 46.4253 32.2053C46.4296 32.6249 46.7337 32.7923 47.1274 32.7902C48.8688 32.7827 49.9422 31.5549 49.9081 29.6146Z" fill="white"/>
<path d="M26.1539 25.4075C26.8624 25.4729 27.6958 25.4858 28.5025 25.6393C30.2108 25.9634 30.9257 27.2265 30.246 28.8449C30.0155 29.3933 30.0678 29.6702 30.4039 30.0941C31.5584 31.5494 30.4935 33.611 28.6508 33.7247C27.5517 33.7924 26.4484 33.7902 25.3473 33.7934C24.8714 33.7945 24.5833 33.5391 24.5801 33.0293C24.5758 32.336 24.5694 31.6438 24.5683 30.9505C24.5662 29.8419 24.5513 28.7322 24.5715 27.6247C24.5844 26.9668 24.515 26.3905 23.7905 26.1276C23.6294 26.0696 23.5984 25.914 23.6934 25.8013C23.7755 25.7026 23.878 25.562 23.9815 25.5523C24.6644 25.4901 25.3494 25.4579 26.1539 25.4075ZM26.2756 31.3916C26.2713 31.3916 26.2671 31.3916 26.2628 31.3916C26.2628 31.5966 26.251 31.8026 26.2649 32.0076C26.3055 32.6172 26.5498 32.8157 27.1922 32.8039C27.6062 32.7964 27.9978 32.7428 28.3627 32.5185C29.1523 32.0334 29.2163 30.9913 28.4662 30.4719C28.0074 30.1542 27.4888 30.0008 26.9307 29.9836C26.5253 29.9707 26.2948 30.1574 26.2777 30.5717C26.266 30.8443 26.2756 31.1179 26.2756 31.3916ZM26.2692 27.4294C26.2692 28.0057 26.2606 28.2826 26.2713 28.5573C26.2884 28.9844 26.5359 29.168 26.9382 29.1036C27.3405 29.0381 27.7556 28.978 28.1311 28.8288C28.7095 28.5992 28.9186 27.8039 28.5974 27.2469C28.2581 26.6588 27.2402 26.3379 26.5968 26.6331C26.4869 26.6835 26.3609 26.8059 26.3353 26.9164C26.2724 27.1804 26.266 27.4573 26.2692 27.4294Z" fill="white"/>
<path d="M56.8747 34.0618C54.507 34.0371 52.6589 32.4284 52.4391 30.2004C52.2246 28.039 53.8455 25.8443 55.9656 25.4247C57.4552 25.1296 58.8925 25.7177 59.5615 26.9046C59.7685 27.2706 59.9371 27.6494 59.8293 28.0927C59.7973 28.2236 59.7941 28.3642 59.7941 28.4994C59.793 29.0832 60.7427 28.8825 60.6477 29.5147C60.5762 29.9858 59.8624 30.0555 59.9243 30.6791C59.9851 31.3005 59.9147 31.9336 59.9296 32.5604C59.9414 33.0455 59.712 33.3374 59.2937 33.5295C58.6332 33.8321 57.5875 34.0693 56.8747 34.0618ZM54.3896 29.4234C54.396 30.3389 54.4974 31.0107 54.8602 31.6364C55.399 32.5647 56.1588 33.0326 57.2439 32.9564C57.9535 32.907 58.2288 32.6945 58.2075 31.924C58.1744 30.7746 58.216 29.7057 59.346 29.0145C59.6053 28.8557 59.5487 28.5638 59.3225 28.3127C59.1422 28.1131 59.0152 27.8587 58.8861 27.6172C58.3526 26.6192 57.4893 26.3423 56.4394 26.4818C55.4652 26.6117 54.777 27.2835 54.5145 28.3964C54.4206 28.7988 54.4131 29.2217 54.3896 29.4234Z" fill="white"/>
<path d="M141.863 103.564C140.823 103.564 139.784 103.578 138.743 103.556C138.447 103.549 138.226 103.328 138.202 103.028C138.187 102.838 138.253 102.609 138.49 102.527C139.092 102.32 139.322 101.93 139.297 101.264C139.246 99.8702 139.255 98.4729 139.293 97.0777C139.313 96.3265 139.257 95.6933 138.396 95.4357C138.233 95.3874 138.119 95.1073 138.238 94.9066C138.336 94.7435 138.504 94.5203 138.656 94.5074C139.898 94.4076 141.143 94.3507 142.384 94.5278C142.709 94.5739 142.918 95.2533 142.646 95.3542C141.6 95.7427 141.714 96.5851 141.72 97.4179C141.731 98.6736 141.711 99.9303 141.732 101.187C141.747 102.028 141.921 102.184 142.666 102.227C143.76 102.29 144.747 102.129 145.361 101.063C145.425 100.952 145.567 100.884 145.68 100.806C145.881 100.668 146.083 100.728 146.242 100.863C146.335 100.942 146.432 101.109 146.413 101.215C146.276 101.977 145.919 102.65 145.515 103.297C145.349 103.561 145.056 103.593 144.779 103.595C143.808 103.604 142.836 103.598 141.865 103.598C141.863 103.588 141.863 103.576 141.863 103.564Z" fill="white"/>
<path d="M84.3314 5.9784C83.2302 6.67061 82.0821 5.57596 81.1868 6.02885C80.0942 6.58154 79.0464 6.36154 77.974 6.43237C77.8438 6.44096 77.6795 6.40339 77.5845 6.3229C77.4949 6.24778 77.4618 6.09108 77.4341 5.96445C77.4234 5.91293 77.4864 5.83889 77.528 5.78416C77.7734 5.45791 78.1618 5.61888 78.4723 5.50726C78.9493 5.33663 79.0432 4.91916 78.6793 4.55964C76.6733 2.58281 73.7966 2.58925 71.812 4.57574C71.4929 4.89448 71.621 5.32912 72.1032 5.51263C72.354 5.60815 72.6304 5.63927 72.8726 5.74873C72.9483 5.78308 73.0006 5.98699 72.9782 6.09646C72.9558 6.20271 72.8331 6.295 72.7381 6.37549C72.6912 6.4152 72.609 6.42807 72.5429 6.427C71.7148 6.41734 70.8858 6.42592 70.0588 6.383C69.4709 6.35295 69.313 6.03206 69.6288 5.59205C70.364 4.56715 71.2422 3.6882 72.291 2.98955C73.485 2.19431 74.7815 1.80796 76.223 2.02153C76.8387 2.11275 77.4533 2.21578 78.0711 2.28447C79.7058 2.46798 81.1121 3.16555 82.3574 4.20977C83.0296 4.77427 83.6677 5.3817 84.3314 5.9784ZM82.2976 5.40532C82.2859 5.25185 82.32 5.09623 82.2603 4.99964C81.9177 4.44373 81.4408 4.05953 80.7632 4.07885C80.4954 4.08636 80.2884 4.29133 80.2916 4.61007C80.2959 5.14131 80.6789 5.47507 80.9649 5.8464C81.1207 6.04923 81.3447 6.20699 81.667 6.09967C82.0308 5.9784 82.2154 5.73479 82.2976 5.40532Z" fill="white"/>
<path d="M64.1528 25.6105C64.9136 25.6105 65.6744 25.5922 66.4352 25.6159C67.2269 25.6405 67.3422 25.7876 67.3464 26.6461C67.3475 26.8543 67.3539 27.0679 67.3123 27.2696C67.276 27.4478 67.2974 27.7247 66.9869 27.6807C66.8663 27.6635 66.7052 27.6066 66.6497 27.5154C66.4725 27.2246 66.3936 26.8253 66.0383 26.7191C65.3671 26.5184 64.6703 26.5731 63.9864 26.6815C63.8818 26.6976 63.726 26.864 63.7207 26.967C63.6929 27.5197 63.6759 28.0778 63.7228 28.6283C63.7346 28.7646 63.9789 28.9567 64.1422 28.9889C64.4772 29.0554 64.8368 28.9878 65.1718 29.0522C65.6552 29.1456 66.3242 28.7324 66.5792 29.4847C66.702 29.8464 66.3413 29.9945 65.2732 30.0396C64.9286 30.0535 64.5828 30.0578 64.2403 30.09C63.9352 30.119 63.7282 30.3079 63.7058 30.6126C63.6695 31.0967 63.6769 31.585 63.6673 32.0711C63.6567 32.6056 63.9746 32.7773 64.4473 32.8063C65.5176 32.8717 66.5366 32.8481 67.0968 31.6805C67.1779 31.5109 67.3913 31.3338 67.6111 31.4412C67.9056 31.586 67.8949 31.879 67.8085 32.1505C67.6815 32.5465 67.5268 32.9329 67.3934 33.3278C67.291 33.6326 67.0541 33.7399 66.7703 33.7882C66.703 33.8 66.6326 33.8043 66.5643 33.8022C65.1206 33.7464 63.6684 33.9653 62.2333 33.653C61.6475 32.3276 62.0881 30.9357 61.9772 29.5792C61.9153 28.8193 61.943 28.0488 61.9665 27.2847C61.9814 26.7931 61.7456 26.5281 61.3359 26.3295C61.1748 26.2512 60.9944 26.0838 61.1342 25.8605C61.1961 25.7618 61.3466 25.6609 61.4586 25.6588C62.356 25.6427 63.2544 25.6502 64.1528 25.6502C64.1528 25.6362 64.1528 25.6234 64.1528 25.6105Z" fill="white"/>
<path d="M44.9741 11.8156C44.9741 11.8156 44.9432 11.7351 44.9453 11.7361C44.7746 11.837 44.637 11.9304 44.638 12.1847C44.6391 12.657 44.7042 13.1474 44.4353 13.5831C44.2432 13.5788 44.0501 13.5735 43.858 13.5692C43.0834 12.2813 43.0834 12.2813 41.3868 12.4477C41.1072 13.0433 41.2374 13.6808 41.2321 14.2989C41.215 16.323 41.2385 18.346 41.2193 20.37C41.2097 21.3874 40.9227 21.6053 39.9677 21.4958C39.5398 21.4464 39.3488 21.1813 39.3221 20.8229C39.2752 20.1983 39.2901 19.5683 39.2901 18.9416C39.2869 16.7855 39.289 14.6306 39.289 12.541C37.9414 11.9798 37.1507 12.408 36.6791 13.566C36.5041 13.5724 36.328 13.5788 36.1531 13.5853C36.1253 13.5219 36.0773 13.4608 36.072 13.3964C35.882 11.2618 36.0346 11.0686 38.0385 11.0429C39.4768 11.0246 40.9173 11.0901 42.3525 11.0214C43.3448 10.972 44.2038 11.2006 44.9741 11.8156Z" fill="white"/>
<path d="M76.8228 27.7685C78.6154 27.7685 80.4069 27.7599 82.1995 27.7739C82.7053 27.7782 82.8557 28.01 82.8259 28.6099C82.7981 29.1894 82.6391 29.3965 82.1206 29.3976C78.5364 29.4062 74.9512 29.4019 71.3671 29.404C71.0769 29.404 70.777 29.3643 70.7226 29.0381C70.6671 28.7086 70.6479 28.3416 70.7386 28.0271C70.824 27.732 71.174 27.7621 71.445 27.7621C73.2376 27.761 75.0291 27.761 76.8217 27.761C76.8228 27.7642 76.8228 27.7663 76.8228 27.7685Z" fill="white"/>
<path d="M13.768 26.9969C15.5638 26.9969 17.3585 26.9884 19.1543 27.0012C19.8362 27.0066 20.0421 27.321 19.9311 28.098C19.8895 28.3921 19.7764 28.6218 19.4328 28.6357C19.3635 28.6389 19.2952 28.6475 19.2258 28.6475C15.6353 28.6486 12.0437 28.6518 8.45315 28.6443C7.91857 28.6432 7.77132 28.45 7.76278 27.8598C7.75424 27.2556 7.91003 27.0087 8.38059 27.0055C10.1764 26.9927 11.9711 27.0002 13.7669 27.0002C13.768 26.9991 13.768 26.998 13.768 26.9969Z" fill="white"/>
<path d="M42.3237 33.8009C42.2618 33.7945 41.9876 33.773 41.7145 33.7398C41.2482 33.6829 40.9932 33.3642 40.8395 32.9617C40.768 32.7728 40.7445 32.5539 40.7445 32.3489C40.7349 30.3367 40.7275 28.3255 40.7381 26.3133C40.7403 25.8325 41.0134 25.6286 41.5533 25.6232C42.0943 25.6168 42.3643 25.8185 42.3675 26.3047C42.3824 28.1774 42.3867 30.0512 42.376 31.9239C42.3728 32.4434 42.4304 32.8769 43.0173 33.0626C43.1934 33.1184 43.378 33.2965 43.2531 33.5444C43.1528 33.743 42.965 33.8149 42.7452 33.8009C42.6759 33.7977 42.6065 33.8009 42.3237 33.8009Z" fill="white"/>
<path d="M43.857 13.5681C44.049 13.5724 44.2422 13.5778 44.4342 13.5821C44.4694 13.7924 44.3819 13.9276 44.1696 13.9072C43.9893 13.8901 43.8356 13.7967 43.857 13.5681Z" fill="white"/>
<path d="M36.1499 13.583C36.3249 13.5766 36.501 13.5702 36.6759 13.5637C36.7176 13.8631 36.5084 13.9297 36.2972 13.9136C36.1296 13.9007 36.0837 13.7472 36.1499 13.583Z" fill="white"/>
<path d="M19.849 16.5688C19.7252 17.0582 19.1842 17.3834 18.7361 17.2385C18.2559 17.0839 17.9923 16.5549 18.1513 16.0687C18.2847 15.6609 18.7094 15.4065 19.1223 15.4881C19.6174 15.5858 19.9663 16.1041 19.849 16.5688Z" fill="white"/>
</g>
<defs>
<filter id="filter0_d_794_344" x="0.365112" y="0.963379" width="393.049" height="109.816" filterUnits="userSpaceOnUse" color-interpolation-filters="sRGB">
<feFlood flood-opacity="0" result="BackgroundImageFix"/>
<feColorMatrix in="SourceAlpha" type="matrix" values="0 0 0 0 0 0 0 0 0 0 0 0 0 0 0 0 0 0 127 0" result="hardAlpha"/>
<feOffset dy="3"/>
<feGaussianBlur stdDeviation="2"/>
<feComposite in2="hardAlpha" operator="out"/>
<feColorMatrix type="matrix" values="0 0 0 0 0 0 0 0 0 0 0 0 0 0 0 0 0 0 0.54 0"/>
<feBlend mode="normal" in2="BackgroundImageFix" result="effect1_dropShadow_794_344"/>
<feBlend mode="normal" in="SourceGraphic" in2="effect1_dropShadow_794_344" result="shape"/>
</filter>
</defs>
</svg>
