<svg width="233" height="54" viewBox="0 0 233 54" fill="none" xmlns="http://www.w3.org/2000/svg">
<g id="Logo word">
<path id="Vector" d="M182.978 15.6654C182.978 17.8637 182.978 20.062 182.978 22.2603C182.987 20.1154 182.978 17.8904 182.978 15.6654Z" fill="#FCFCFC"/>
<path id="Vector_2" d="M232.624 35.7971C229.094 24.5564 225.538 13.3245 222.053 2.06599C222.028 1.85561 221.959 1.65271 221.851 1.46986C221.743 1.28701 221.599 1.1281 221.426 1.00295C221.254 0.877811 221.058 0.789101 220.85 0.74232C220.642 0.695539 220.427 0.691677 220.217 0.73098C217.53 0.793281 214.761 0.819981 212.038 0.73098C210.838 0.68648 210.462 1.13148 210.139 2.19948C207.55 10.7524 204.89 19.2787 202.247 27.8138C201.297 30.8932 200.348 33.9637 199.345 37.1945C201.96 37.1945 204.352 37.15 206.735 37.1945C207.72 37.1945 208.195 36.9808 208.437 35.9484C208.992 33.5988 209.718 31.2937 210.336 28.9708C210.542 28.1965 210.838 27.8049 211.778 27.8316C214.555 27.9117 217.341 27.885 220.118 27.8316C220.276 27.8025 220.437 27.8061 220.593 27.8423C220.749 27.8785 220.896 27.9464 221.024 28.0418C221.152 28.1372 221.258 28.2579 221.337 28.3964C221.415 28.5349 221.464 28.688 221.48 28.8462C222.134 31.2225 222.94 33.5543 223.603 35.9662C223.845 36.8562 224.141 37.2568 225.153 37.2212C227.769 37.1322 230.384 37.1678 233 37.1499V36.4913C232.696 36.3489 232.705 36.0552 232.624 35.7971ZM211.931 21.5571C213.256 16.7867 214.672 12.1319 215.72 7.03221C217.153 12.0696 218.506 16.8223 219.868 21.5571H211.931Z" fill="#FB2121"/>
<path id="Vector_3" d="M58.1203 43.7183C57.0005 43.7183 57.2245 44.3769 57.2245 45.0088V49.9483C55.6568 47.8835 54.3131 46.2014 53.0769 44.4481C52.8545 44.1304 52.5339 43.8934 52.1637 43.7729C51.7936 43.6525 51.394 43.6552 51.0255 43.7806C50.1297 43.9408 50.5776 44.7596 50.5686 45.258C50.5059 47.839 50.5686 50.42 50.5149 52.9922H51.8496C52.6559 52.0488 52.208 50.9184 52.2796 49.8771C52.3513 48.8358 52.2796 47.8212 52.2796 46.3171L57.1797 52.9565H58.5234C58.7013 52.7554 58.8335 52.5185 58.9108 52.262C58.9881 52.0055 59.0087 51.7354 58.9713 51.4703C58.9713 49.2719 58.9713 47.0736 58.9713 44.8753C58.9623 44.3413 59.1415 43.7361 58.1203 43.7183Z" fill="#FB2121"/>
<path id="Vector_4" d="M97.3121 48.0703C96.8283 48.0703 95.9415 47.5719 95.8788 48.5598C95.8161 49.5477 96.6671 49.1205 97.1329 49.1205C97.7958 49.1205 98.0287 49.3786 97.957 50.0105C97.8854 50.6424 98.3154 51.3544 97.33 51.6481C96.4057 51.8738 95.4297 51.7432 94.5986 51.2824C93.7674 50.8216 93.1429 50.065 92.8509 49.165C92.7217 48.714 92.6931 48.2404 92.7672 47.7772C92.8412 47.3141 93.0162 46.8726 93.2798 46.4836C93.5434 46.0946 93.8892 45.7674 94.2933 45.525C94.6973 45.2825 95.1497 45.1306 95.619 45.0799C96.445 44.985 97.2803 45.006 98.1004 45.1422C98.6199 45.2134 99.0858 45.4626 99.2649 44.7417C99.4978 43.8517 98.7006 43.8517 98.2527 43.8517C97.1484 43.727 96.0335 43.727 94.9292 43.8517C93.873 43.9575 92.8871 44.4261 92.1414 45.1767C91.3957 45.9273 90.937 46.9129 90.8443 47.9635C90.6383 50.2775 91.6326 51.7015 94.1409 52.636C94.3469 52.7161 94.5619 52.725 94.5978 52.992H97.6077C98.8529 52.5737 100.026 52.3512 99.7935 50.4288C99.5247 48.0525 99.7397 47.9991 97.3121 48.0703Z" fill="#FB2121"/>
<path id="Vector_5" d="M141.932 47.9457C142.335 47.6926 142.635 47.3072 142.781 46.8566C142.926 46.4061 142.908 45.919 142.729 45.4804C142.571 45.007 142.269 44.5938 141.865 44.2975C141.46 44.0011 140.974 43.8361 140.472 43.825C139.37 43.7004 138.25 43.825 137.148 43.7627C136.253 43.7093 136.038 44.1187 136.047 44.9375C136.091 47.6075 136.047 50.2775 136.047 52.992H137.381C138.125 52.2711 137.686 51.3455 137.847 50.5267C137.946 49.9749 137.355 49.0849 138.447 48.9603C138.885 48.8577 139.347 48.9298 139.732 49.161C140.117 49.3923 140.396 49.7644 140.508 50.1974C140.794 51.1319 141.099 52.0664 141.404 52.992H142.738C143.321 51.4434 142.443 50.1885 141.843 48.9336C141.583 48.4619 141.404 48.3017 141.932 47.9457ZM138.582 47.7944C137.793 47.9635 137.767 47.2337 137.856 46.4683C137.946 45.7029 137.426 44.7595 138.797 44.8574C139.8 44.9286 141.009 45.0265 141.009 46.3081C141 47.4206 139.917 47.7054 138.582 47.7944Z" fill="#FB2121"/>
<path id="Vector_6" d="M177.505 44.3146C176.242 47.1474 175.13 50.0439 174.172 52.9921H175.838C176.088 52.6384 176.287 52.252 176.43 51.844C176.698 50.331 177.621 50.1085 179.036 50.064C181.294 50.0106 180.721 52.0043 181.527 52.9744H183.238C182.709 49.8326 181.07 47.0736 179.986 44.1277C179.655 43.4246 177.791 43.567 177.505 44.3146ZM177.505 48.9871L178.669 45.8009L179.905 48.9871H177.505Z" fill="#FB2121"/>
<path id="Vector_7" d="M52.2618 49.8771C52.1901 50.9184 52.638 52.0487 51.8318 52.9921H57.2066L52.3066 46.3527C52.2797 47.8212 52.3334 48.8536 52.2618 49.8771Z" fill="#FCFCFC"/>
<path id="Vector_8" d="M75.0241 43.7183C74.1283 43.7183 74.2268 44.2256 74.2268 44.7774C74.2268 47.5186 74.2268 50.2598 74.2268 52.9921H75.5616C75.7241 52.8133 75.8484 52.6036 75.9269 52.3756C76.0055 52.1477 76.0366 51.9063 76.0185 51.666C76.0185 49.3698 76.0185 47.0647 76.0185 44.7685C76.0364 44.0031 75.8572 43.7183 75.0241 43.7183Z" fill="#FB2121"/>
<path id="Vector_9" d="M158.585 43.7183C157.69 43.7183 157.788 44.2256 157.788 44.7774C157.788 47.5186 157.788 50.2598 157.788 52.9921H159.123C159.445 52.6272 159.609 52.1506 159.58 51.666C159.58 49.3698 159.535 47.0647 159.58 44.7685C159.598 44.0031 159.418 43.7183 158.585 43.7183Z" fill="#FB2121"/>
<path id="Vector_10" d="M179.037 50.0818C177.621 50.0818 176.698 50.331 176.43 51.8618C176.287 52.2698 176.088 52.6562 175.839 53.0099H181.527C180.721 52.022 181.294 50.0284 179.037 50.0818Z" fill="#FCFCFC"/>
<path id="Vector_11" d="M138.447 48.9603C137.355 49.0849 137.946 49.975 137.847 50.5268C137.686 51.3456 138.125 52.3068 137.381 52.9921H141.395C141.099 52.1021 140.795 51.1319 140.499 50.1974C140.387 49.7663 140.109 49.3958 139.726 49.1647C139.343 48.9337 138.884 48.8603 138.447 48.9603Z" fill="#FCFCFC"/>
<path id="Vector_12" d="M115.156 52.8497C115.104 52.8824 115.066 52.9331 115.049 52.9921H121.4C121.371 52.9274 121.325 52.8719 121.266 52.8319L115.156 52.8497Z" fill="#D4515A"/>
<path id="Vector_13" d="M140.078 17.0537C139.881 9.31955 135.375 3.47222 127.832 1.50531C121.561 -0.141197 115.138 0.392806 108.751 1.03361C107.65 1.14041 107.408 1.55871 107.417 2.56442C107.417 8.07354 107.417 13.5738 107.417 19.0829C107.417 24.592 107.417 30.1991 107.417 35.7527C107.417 36.527 107.417 37.0699 108.492 37.1589C113.418 37.7197 118.395 37.7018 123.317 37.1055C129.928 36.1265 135.429 33.4298 138.322 27.0306C139.667 23.8821 140.268 20.469 140.078 17.0537ZM130.645 22.7853C130.152 25.0135 128.93 27.0167 127.17 28.482C125.41 29.9472 123.211 30.792 120.916 30.8844C115.954 31.2849 115.954 31.2848 115.954 26.3809V19.1185C115.954 18.2285 115.954 17.4097 115.954 16.5642C115.954 14.001 115.954 11.4467 115.891 8.89235C115.828 7.36154 116.366 6.96994 117.79 6.88094C119.512 6.74746 121.244 6.84323 122.941 7.16574C125.073 7.52041 127.025 8.5733 128.486 10.157C129.947 11.7406 130.833 13.7641 131.003 15.9056C131.314 18.2011 131.192 20.5339 130.645 22.7853Z" fill="#FB2121"/>
<path id="Vector_14" d="M31.3534 16.2972C27.5672 16.3387 23.7809 16.3387 19.9946 16.2972C19.0988 16.2972 18.6777 16.4307 18.7405 17.4453C18.8211 18.8741 18.8211 20.3063 18.7405 21.7351C18.6957 22.6251 19.045 22.8832 19.8961 22.8387C21.0606 22.7853 22.2341 22.8387 23.4076 22.8387C24.178 22.8387 24.4915 22.99 24.4647 23.8266C24.393 25.6066 24.402 27.4667 24.4647 29.2734C24.4647 30.1634 24.2138 30.4839 23.2912 30.6441C15.1751 32.1304 9.31655 27.6269 8.87761 19.5101C8.54616 13.2801 11.9323 8.74105 17.979 7.56624C20.2976 7.25471 22.6478 7.25471 24.9663 7.56624C26.5967 7.69974 28.5496 9.28396 29.5618 8.39395C30.5741 7.50395 30.592 5.27004 31.0309 3.62353C31.0269 3.5702 31.0269 3.51665 31.0309 3.46332C31.4609 2.47542 31.0757 2.03042 30.0635 1.68331C26.5409 0.635493 22.8562 0.231416 19.1884 0.490712C7.05911 1.07811 -0.295468 8.88346 0.00910663 20.8273C0.0203755 24.4152 1.22054 27.8995 3.42419 30.742C5.62783 33.5845 8.71232 35.6269 12.2011 36.5537C18.7315 38.4049 25.1903 37.6306 31.6132 35.8506C32.509 35.6014 32.509 35.0496 32.509 34.3643C32.509 31.6053 32.509 28.8551 32.509 26.105C32.509 24.6721 32.509 23.2481 32.509 21.8152C32.509 20.3823 32.509 18.9494 32.509 17.5254C32.5717 16.5553 32.303 16.2794 31.3534 16.2972Z" fill="#FB2121"/>
<path id="Vector_15" d="M175.471 36.6961C171.81 25.0489 168.155 13.378 164.506 1.68332C164.238 0.793321 163.79 0.739922 163.055 0.739922C160.162 0.739922 157.259 0.784423 154.366 0.739922C154.195 0.706529 154.019 0.707324 153.849 0.742258C153.679 0.777192 153.517 0.845565 153.373 0.94337C153.23 1.04118 153.107 1.16645 153.013 1.31185C152.919 1.45725 152.855 1.61985 152.825 1.79013C149.313 13.2297 145.784 24.6543 142.237 36.0642C141.968 36.9542 142.057 37.239 143.052 37.2123C145.22 37.1589 147.396 37.1322 149.564 37.2123C150.532 37.2123 150.783 36.794 150.989 36.0464C151.607 33.7146 152.305 31.4006 152.897 29.0599C153.121 28.1699 153.443 27.8228 154.438 27.8495C157.125 27.9385 159.902 27.9296 162.625 27.8495C162.796 27.8219 162.97 27.8291 163.138 27.8708C163.306 27.9124 163.463 27.9876 163.601 28.0917C163.738 28.1958 163.853 28.3267 163.938 28.4763C164.023 28.626 164.076 28.7912 164.094 28.962C164.766 31.3383 165.483 33.6968 166.217 36.082C166.361 36.5448 166.325 37.2212 167.113 37.2212C169.881 37.2212 172.649 37.2212 175.408 37.2212C175.451 37.0494 175.472 36.873 175.471 36.6961ZM154.572 21.5393C155.871 16.76 157.331 12.1587 158.307 7.00556C159.768 12.0608 161.111 16.7511 162.482 21.5393H154.572Z" fill="#FB2121"/>
<path id="Vector_16" d="M61.1304 30.3415C57.0634 30.4127 53.0054 30.3415 48.9384 30.3949C47.8187 30.3949 47.3708 30.208 47.4424 28.9887C47.5455 27.1211 47.5455 25.2493 47.4424 23.3817C47.3708 22.1891 47.6574 21.7886 48.9563 21.8242C52.5396 21.931 56.1945 21.8242 59.8135 21.8776C60.7541 21.8776 61.1035 21.6284 61.0587 20.6672C60.9826 19.2412 60.9826 17.8122 61.0587 16.3863C61.1214 15.3005 60.7631 14.989 59.6613 15.0068C55.9795 15.078 52.3067 15.0068 48.6339 15.0602C47.6843 15.0602 47.3976 14.8021 47.4424 13.8676C47.5141 12.1677 47.532 10.4589 47.4424 8.75895C47.3797 7.65534 47.8366 7.49514 48.7951 7.52184C51.3571 7.57524 53.9191 7.58414 56.4811 7.52184C58.2727 7.52184 60.6377 8.31395 61.5604 7.17474C62.483 6.03554 61.7395 3.81052 61.8649 2.06611C61.9545 0.926908 61.5156 0.722207 60.4675 0.731107C53.7847 0.775607 47.102 0.784507 40.4193 0.731107C39.1562 0.731107 39.0039 1.16721 39.0218 2.23522C39.0666 7.78884 39.0218 13.3514 39.0218 18.905C39.0218 24.4586 39.0218 30.2436 39.0218 35.9041C39.0218 36.5182 38.762 37.2213 39.9176 37.2124C47.1558 37.1768 54.3939 37.1768 61.632 37.2124C62.3755 37.2124 62.5905 36.981 62.5278 36.269C62.5278 34.7916 62.4383 33.2964 62.5278 31.8189C62.6801 30.653 62.3039 30.3237 61.1304 30.3415Z" fill="#FB2121"/>
<path id="Vector_17" d="M96.5056 3.49011C95.798 3.50551 95.1011 3.31694 94.499 2.94721C88.2284 -0.790807 81.7965 -0.870911 75.3377 2.4844C74.622 2.88062 73.8188 3.09466 72.9996 3.10741C71.8465 3.10587 70.7106 3.38574 69.6918 3.92243C68.673 4.45912 67.8025 5.2362 67.1567 6.18539C66.5109 7.13457 66.1097 8.22682 65.9883 9.36613C65.8668 10.5054 66.0289 11.6569 66.4602 12.7195C66.8839 13.7727 66.9988 14.9237 66.7917 16.0392C66.6304 17.0716 66.5767 18.1129 66.4781 19.1542H66.5588C66.5588 19.3767 66.5588 19.5992 66.5588 19.8217C66.8723 26.9417 69.3895 32.7446 76.1349 36.1533C76.5992 36.4443 76.9838 36.8448 77.2547 37.3192C77.8707 38.1902 78.6753 38.9128 79.6096 39.4341C80.5438 39.9553 81.5837 40.2617 82.6529 40.3309C83.722 40.4001 84.7932 40.2302 85.7875 39.8337C86.7819 39.4373 87.6741 38.8244 88.3986 38.0401C88.916 37.4827 89.5704 37.0686 90.2977 36.8386C92.5556 36.1362 94.628 34.9437 96.3648 33.3475C98.1017 31.7512 99.4594 29.7911 100.34 27.6092C101.733 24.2295 102.289 20.5668 101.961 16.9292C101.882 16.065 102.114 15.2009 102.615 14.4906C103.385 13.4365 103.825 12.1806 103.88 10.8795C103.936 9.57853 103.605 8.29001 102.929 7.17473C102.317 6.02077 101.39 5.06232 100.253 4.41027C99.1164 3.75821 97.8171 3.4392 96.5056 3.49011ZM90.3066 28.4102C89.7154 29.1667 89.3481 29.4782 88.515 28.4903C87.3769 27.1392 85.7603 26.2733 83.9986 26.0713C82.2369 25.8693 80.4644 26.3465 79.0463 27.4045C77.9714 28.1699 77.7026 27.7338 77.2547 26.9061C76.0408 24.5902 75.4426 22.0046 75.5168 19.3945C75.3657 18.6981 75.4615 17.9713 75.788 17.3371C76.1145 16.7029 76.6517 16.2003 77.3085 15.9146C79.754 14.5262 80.7036 12.0253 80.2467 9.23064C80.0496 8.02023 80.5244 7.54852 81.5367 7.21922C83.3817 6.54168 85.416 6.57982 87.234 7.32603C88.6315 7.92233 89.7423 8.47413 89.4467 10.5211C89.3289 11.6002 89.5094 12.6907 89.9687 13.6755C90.428 14.6602 91.1488 15.502 92.0535 16.1104C92.4142 16.35 92.7062 16.6786 92.9009 17.0639C93.0956 17.4492 93.1863 17.8781 93.1643 18.3087C93.1284 21.8954 92.6716 25.4554 90.3066 28.4013V28.4102Z" fill="#FB2121"/>
<path id="Vector_18" d="M201.566 6.5517C201.472 5.12329 201.472 3.6903 201.566 2.26189C201.665 1.02478 201.28 0.695476 200.016 0.713276C192.949 0.775576 185.881 0.713276 178.804 0.713276C177.012 0.713276 175.149 0.766682 173.321 0.802282C172.909 2.68909 173.268 4.6115 173.115 6.51611C173.044 7.40611 173.339 7.74432 174.307 7.71762C176.752 7.65532 179.207 7.71762 181.652 7.67312C182.79 7.62862 183.014 8.01132 182.996 9.05262C182.996 11.2509 182.996 13.4492 182.996 15.6565C182.996 17.8637 182.996 20.0531 182.996 22.2514V29.1044C182.996 31.3828 182.996 33.6701 182.996 35.9485C182.996 36.8385 183.22 37.2123 184.196 37.1767C185.921 37.0655 187.65 37.0655 189.374 37.1767C191.031 37.3102 191.605 36.9008 191.578 35.0941C191.47 26.4077 191.578 17.7124 191.506 9.02591C191.506 7.95791 191.766 7.62861 192.868 7.66421C195.367 7.74431 197.875 7.66421 200.384 7.70871C201.306 7.77991 201.62 7.49511 201.566 6.5517Z" fill="#FB2121"/>
<path id="Vector_19" d="M120.343 51.666C119.627 51.7194 118.883 51.5948 118.175 51.666C116.939 51.8351 116.769 51.2833 116.742 50.1975C116.742 48.9248 117.056 48.373 118.39 48.5688C118.945 48.6 119.502 48.6 120.057 48.5688C120.567 48.5688 120.952 48.4709 120.952 47.8568C120.952 47.2427 120.487 47.3584 120.128 47.3406C119.531 47.3406 118.934 47.3406 118.337 47.3406C117.441 47.3406 116.787 47.4652 116.796 46.148C116.805 44.8308 117.477 44.8931 118.355 44.9287C119.026 44.9287 119.689 44.9287 120.361 44.9287C120.809 44.9287 121.078 44.813 121.096 44.2968C121.114 43.7806 120.782 43.7005 120.361 43.7005C118.865 43.7005 117.36 43.7005 115.882 43.7005C115.165 43.7005 115.067 44.0031 115.076 44.5905C115.13 47.3317 115.156 50.0729 115.192 52.8141H121.302C121.526 52.0131 121.32 51.5948 120.343 51.666Z" fill="#FB2121"/>
</g>
</svg>
